<svg clip-rule="evenodd" fill-rule="evenodd" stroke-linejoin="round" stroke-miterlimit="2" viewBox="0 0 560 400" xmlns="http://www.w3.org/2000/svg"><g fill="#ff5900" fill-rule="nonzero" transform="matrix(1.02881 0 0 1.02881 125.785 99.2798)"><path d="m132 195.1v-86.1h36v45.1z"/><path d="m29 170.2v-23.9l3.5-2.5c6.9-4.9 18.5-16 25.7-24.6 15-17.9 26.8-38.9 34.4-61.6l4.4-13.1-3-.3c-5.9-.6-47.9 5.6-62.1 9.3-2.3.6-3.8-.8-16.8-15.9-7.8-9-14.3-16.8-14.4-17.2-.3-1.1 10.3-3.7 33.3-8.3 32.9-6.6 58.4-9.7 89.8-10.8l18.2-.6v9.4c0 27-8.2 59.1-22.5 88.4-15.2 31.2-36 57-63 78-8.3 6.5-25.1 17.5-26.7 17.5-.4 0-.8-10.7-.8-23.8z"/><path d="m258.8 187.2c-34.5-22.8-60.9-52.9-78.8-89.7-13.9-28.4-22-60.8-22-87.4v-9.4l18.3.6c31.7 1.2 56.9 4.2 89.7 10.8 23 4.6 33 7.1 33.1 8.2 0 .5-6.4 8.3-14.2 17.3-11.5 13.4-14.7 16.4-16.3 16-13.5-3.2-58-9.9-62.6-9.4l-3 .3 4.4 13.1c7.6 22.7 19.4 43.7 34.4 61.6 7.2 8.6 18.8 19.7 25.7 24.6l3.5 2.5v23.9c0 13.5-.4 23.8-.9 23.8s-5.6-3.1-11.3-6.8z"/></g></svg>