<svg clip-rule="evenodd" fill-rule="evenodd" stroke-linejoin="round" stroke-miterlimit="2" viewBox="0 0 560 400" xmlns="http://www.w3.org/2000/svg"><g fill-rule="nonzero" transform="matrix(.266141 0 0 .266141 118.785 40.515)"><path d="m606.5 413-508-262.5 79.7 444.1c6.4 35.9 26.4 67.1 56.3 87.9l119.2 83.2 8.3 107.2 243.3 175.1 243.3-174 9.7-109.3 121.7-87.2c29.2-20.9 48.7-51.9 55-87.2l78-439.8zm409.8 174c-5.4 30.4-22.2 57.1-47.3 75.1l-128.8 92.3-9.7 109.3-225.2 161-225-162-8.3-107.4-126.5-88.3c-25.7-17.9-42.9-44.8-48.5-75.7l-72.9-406.2 482.5 249.3 481-249.3z" fill="#fc0000"/><path d="m606.6 434.4-482.5-249.3 72.9 406.2c5.5 30.9 22.8 57.7 48.5 75.7l126.6 88.3 8.3 107.4 225 162 225.2-161 9.7-109.3 128.7-92.3c25.1-18 41.9-44.7 47.3-75.1l71.2-401.9z"/><g fill="#fff"><path d="m350.1 510.4-14.9-168-154.1-80 30 165.1z"/><path d="m367.1 698.4-12.1-134.2-133.9-78.8 16.6 94.5c3.4 19.5 14.4 36.9 30.6 48.4z"/><path d="m861.7 510.4 14.9-168 154.1-80-29.9 165.1z"/><path d="m844.7 698.4 12.1-134.2 133.9-78.8-16.6 94.5c-3.4 19.5-14.4 36.9-30.6 48.4z"/><path d="m380.1 365.4 158.6 82 9 113 58.2-42 58.4 42 9-113 158.6-82-42 475-162.6 117 .1-118c0-34.5 16.8-66.8 44.9-86.7l66.8-47.3 7-75-139.5 83.4-140.7-83.4 7 75 67.1 47.2c28.5 20 45.4 52.7 45.2 87.6l-.5 117.3-162.6-117z"/></g></g></svg>