<svg clip-rule="evenodd" fill-rule="evenodd" stroke-linejoin="round" stroke-miterlimit="2" viewBox="0 0 560 400" xmlns="http://www.w3.org/2000/svg"><g fill="#f00" fill-rule="nonzero" transform="matrix(.251664 0 0 .251664 99.99993578578 155.10003990066)"><path d="m167.807 58.697-27.34-39-13.38-19.11c-.205-.353-.594-.555-1-.52h-125.49c-.43 0-.58.17-.59.5v188.94c-.041.425.109.847.41 1.15l12.48 14.85 47.9 57.08 11.05 13.17 17 20.25 50.63 60.39c.233.309.615.47 1 .42h55.65c.384.048.764-.112 1-.42l50.65-60.36 17-20.25 11.05-13.17 47.89-57.11 12.47-14.88c.3-.303.45-.725.41-1.15v-188.97c0-.33-.16-.5-.59-.5h-125.53c-.409-.049-.806.158-1 .52l-13.39 19.11-27.35 39.06c-.34.58-.48.7-.93 0zm-.07 236.81-75.49-90-.86-1c-.259-.294-.321-.713-.16-1.07l15.44-57.62c.28-1 0-1.09-.94-1.06h-44.25c-.54 0-.67-.18-.68-.78v-82.41c0-.64.2-.752.79-.74h32.79c.438-.066.871.145 1.09.53l24.47 35 21.1 30.13c.367.713 1.146 1.115 1.94 1h50.66c.793.115 1.572-.287 1.94-1l21.1-30.13 24.47-35c.218-.385.652-.596 1.09-.53h32.79c.59 0 .81.1.791.74v82.41c0 .6-.141.79-.681.78h-44.25c-.91 0-1.22.08-.94 1.06l15.44 57.62c.16.357.098.776-.16 1.07l-.86 1-75.44 90c-.53.56-.62.67-1.19 0z"/><path d="m650.237 83.857h60c.25 0 .33.06.33.33v151.32c0 .59 0 .63-.63.63h-59.7c-.44 0-.38-.05-.38-.43v-82.75c0-.13-.15-.17-.25-.05l-40.74 43.09c-.137.183-.366.272-.59.23h-44.68c-.228.044-.46-.046-.6-.23l-40.73-43.09c-.11-.12-.25-.08-.25.05v82.74c0 .38.05.43-.39.43h-59.73c-.63 0-.63 0-.63-.63v-151.31c0-.27.08-.33.33-.33h60.12c.199-.009.392.076.52.23l63.47 67.31c.19.19.25.2.45 0l63.45-67.28c.163-.173.392-.267.63-.26z"/><path d="m844.837 239.307c75.61 0 119.75-25.71 119.75-79.26s-44.14-79.26-119.75-79.26-119.75 25.72-119.75 79.26 44.13 79.26 119.75 79.26zm0-111.82c43.7 0 55.26 15 55.26 32.56s-11.56 32.55-55.26 32.55-55.27-15-55.27-32.55 11.56-32.54 55.27-32.54z"/><path d="m1086.13 237.597c70.9 0 105.82-25.92 105.82-87.19v-65.72c0-.23.13-.68-.7-.68h-60.65c-.62 0-.76.33-.76.91v61.85c0 31.49-12.65 43.7-44.57 43.7s-44.56-12.21-44.56-43.7v-61.85c0-.58-.14-.91-.77-.91h-60.643c-.84 0-.7.45-.7.68v65.72c0 61.27 34.923 87.19 105.823 87.19z"/><path d="m1430.48 193.567v42.05c0 .67-.37.7-.7.7h-221.84c-.64 0-.77-.25-.77-.77v-27.18c-.06-.445.15-.883.54-1.11l111-79c.8-.57.28-.72-.27-.72h-110.32c-.85 0-1-.18-1-.95v-41.7c0-.71.28-.88.88-.88h221.81c.59 0 .63 0 .63.63v27.56c0 .27 0 .34-.25.52l-113.9 79.56c-.3.16-.33.48.15.48h113.24c.8 0 .8.1.8.81z"/></g></svg>