<svg clip-rule="evenodd" fill-rule="evenodd" stroke-linejoin="round" stroke-miterlimit="2" viewBox="0 0 560 400" xmlns="http://www.w3.org/2000/svg"><g fill-rule="nonzero" transform="matrix(1.26334 0 0 1.26334 145 81.2149)"><path d="m0 188.05.05-112.29 213.67-75.76-.05 112.3z" fill="#000105"/><g fill="#fff243"><path d="m15.33 87.09v78.83l28.84-10.25v-78.82z"/><path d="m198.44 22.19-28.47 10.11v78.83l28.47-10.11z"/><path d="m98.4 57.6-28.51 10.12v28.05l28.51 36.15z"/><path d="m164.95 34.03-28.51 10.12v28.05l28.51 36.15z"/><path d="m49.2 124.4 18.2 23.03 28.67-10.17-46.87-59.13z"/><path d="m103.34 55.82v29.5l11.27 14.06-11.27 4.01v20.78l24.08-8.55 6.45 8.16 28.88-10.2-48.73-61.54z"/></g></g></svg>