<svg clip-rule="evenodd" fill-rule="evenodd" stroke-linejoin="round" stroke-miterlimit="2" viewBox="0 0 560 400" xmlns="http://www.w3.org/2000/svg"><g fill-rule="nonzero" transform="matrix(.205748 0 0 -.205748 74.2516 405.748)"><path d="m0 0-468.452-285.094-468.452 285.094v810.048l468.452 285.112 468.452-285.112zm-468.452 1116.55-486.041-295.799v-831.434l486.041-295.818 486.02 295.818v831.434z" fill="#fff" transform="translate(1468.46 594.976)"/><path d="m0 0h-95.831v109.038h-163.057v-502.107l160.908 99.566v105.993h-80.433v95.831h178.413v-257.324l-.501-.313-354.239-215.114v769.654h354.74zm-446.774-564.409-1.565.939-353.175 212.694v556h354.74zm48.156 1275.809-468.453-285.115v-810.048l468.453-285.094 468.452 285.094v810.048z" fill="#002554" transform="translate(1398.63 978.739)"/><path d="m0 0-162.702 96.082v406.067h162.702zm-258.554 598.334v-556l353.175-212.693 1.565-.939v769.632z" fill="#fff" transform="translate(855.669 585.629)"/><path d="m0 0v-502.149l-162.702 96.082v406.067z" fill="#002554" transform="translate(855.669 1087.78)"/><path d="m0 0v109.038h-163.057v-502.107l160.908 99.566v105.993h-80.433v95.831h178.413v-257.324l-.501-.313-354.239-215.114v769.654h354.74v-205.224z" fill="#fff" transform="translate(1302.8 978.739)"/><path d="m0 0c-9.206 0-16.7 8.207-16.7 18.27 0 10.098 7.494 18.412 16.7 18.412s16.735-8.207 16.735-18.305c0-10.134-7.493-18.377-16.735-18.377m16.45 102.018v-56.522c-6.066 6.102-14.309 9.527-22.909 9.599-18.733 0-34.042-16.7-34.042-37.253 0-20.518 15.273-37.361 34.042-37.361 8.707.072 16.986 3.64 23.016 9.849v-8.029l22.659.25v119.467zm-118.147-75.684c-.357 7.922 5.995 14.523 13.916 14.523 7.922 0 14.238-6.601 13.917-14.523zm50.242-12.953c.143 1.499.214 3.033.214 4.567.357 24.729-15.95 38.253-36.754 38.253-20.625-.571-37.074-17.485-37.074-38.11 0-20.66 16.449-37.538 37.074-38.109 15.879 0 28.261 7.172 34.649 18.412l-18.484 8.528c-.321-.642-.714-1.284-1.106-1.891-.429-.606-.857-1.142-1.356-1.677-.964-1.07-2.07-1.998-3.283-2.712-.607-.357-1.214-.713-1.891-.999-.643-.321-1.321-.535-1.999-.749-1.356-.393-2.819-.607-4.282-.607h-1.034c-6.423 0-11.99 4.139-14.024 9.991-.107.357-.214.678-.321 1.035-.179.714-.321 1.427-.393 2.177-.071.357-.071.714-.107 1.106v.785zm-105.016 16.771c15.237 3.533 26.049 17.093 26.156 32.722-.071 8.992-3.747 17.627-10.205 23.943-.785.785-1.606 1.499-2.462 2.212-.893.678-1.749 1.321-2.677 1.927-.928.607-1.855 1.178-2.819 1.677-.927.464-1.855.928-2.819 1.321-.142.035-.321.107-.499.178-.393.179-.785.321-1.213.464-2.141.749-4.389 1.32-6.709 1.606-.856.142-1.748.214-2.64.249-.643.036-1.321.072-1.963.072h-41.963v-113.972h24.228v94.417h12.525c.857.036 1.713 0 2.534-.107 0-.035.035 0 .035-.035.857-.107 1.678-.286 2.462-.536 2.356-.678 4.461-1.998 6.174-3.675 2.712-2.712 4.46-6.387 4.531-10.562-.142-3.675-1.57-6.994-3.817-9.563-.322-.357-.643-.714-1-1.035-1.748-1.677-3.889-2.962-6.244-3.64-.357-.107-.714-.214-1.106-.285-1.107-.25-2.249-.393-3.39-.393h-6.102v-27.262l24.086-37.324h28.332zm272.798-27.797v.071h-21.767v74.542h15.166c6.815-.321 12.168-5.959 12.096-12.774 0-6.673-5.388-12.097-12.061-12.097h-7.921v-20.482h14.487c19.555 0 19.555-29.26 0-29.26m19.055 42.356c6.316 5.638 9.956 13.702 10.063 22.159 0 1.891-.214 3.783-.571 5.638-.357 1.82-.892 3.64-1.571 5.388-.356.857-.749 1.713-1.177 2.534-.321.642-.678 1.249-1.035 1.855-.535.928-1.142 1.785-1.784 2.641-.321.392-.678.821-1.035 1.213-.143.214-.321.428-.535.607-.178.214-.357.392-.535.606-.357.429-.678.75-1.071 1.106-5.495 5.282-14.772 8.208-26.941 8.208h-38.894v-114.115h50.242c19.233.285 34.791 14.844 34.791 32.686 0 12.988-4.603 22.23-19.947 29.474m111.438-62.16h22.73v119.467h-22.73zm38.61 0h22.766v119.467h-22.766zm-73.579 70.688v-41.071c-.178-3.033-1.178-5.531-2.676-7.422-.25-.357-.536-.643-.821-.928-2.462-2.569-5.995-3.854-9.492-3.854-6.244 0-12.489 4.068-13.024 12.204v41.071h-22.623v-45.496c0-15.379 15.95-27.833 35.576-27.833 19.59 0 35.54 12.454 35.54 27.833v45.496z" fill="#ed1847" transform="translate(949.055 1275.18)"/><g fill="#fff"><path d="m0 0c-.179 0-.357 0-.535-.036.856.036 1.712 0 2.533-.107-.642.072-1.32.143-1.998.143" transform="translate(780.059 1352.19)"/><path d="m0 0-22.659-.25v8.029c-6.03-6.209-14.309-9.777-23.015-9.849-18.77 0-34.042 16.843-34.042 37.361 0 20.553 15.308 37.253 34.042 37.253 8.599-.072 16.842-3.497 22.908-9.599v56.522h22.766zm-90.671 30.83h-50.135v-.785c0-.392.036-.749.072-1.106.107-.749.214-1.463.392-2.177.107-.357.214-.678.321-1.035 2.034-5.852 7.601-9.991 14.024-9.991h1.034c1.464 0 2.927.214 4.283.607.677.214 1.355.464 1.998.749.678.286 1.284.642 1.891.999 1.213.75 2.319 1.642 3.283 2.712.499.535.928 1.071 1.356 1.677.392.607.785 1.249 1.106 1.891l18.484-8.528c-6.387-11.24-18.77-18.412-34.649-18.412-20.624.571-37.074 17.449-37.074 38.109 0 20.625 16.45 37.539 37.074 38.11 20.804 0 37.111-13.524 36.754-38.252 0-1.535-.071-3.069-.214-4.568m-99.913-30.83-24.086 37.324v27.262h6.102c1.142 0 2.284.143 3.39.393.392.071.749.178 1.106.285 2.355.678 4.496 1.963 6.244 3.64.357.321.678.678 1 1.035 2.248 2.569 3.675 5.888 3.818 9.563-.072 4.175-1.82 7.85-4.532 10.562-1.713 1.677-3.818 2.998-6.173 3.676-.785.249-1.606.428-2.462.535 0 .036-.036 0-.036.036-.821.106-1.677.142-2.534.106h-12.524v-94.417h-24.229v113.972h41.963c.643 0 1.321-.036 1.963-.071.892-.036 1.784-.107 2.64-.25 2.32-.286 4.568-.857 6.709-1.606.428-.143.82-.285 1.213-.464.179-.071.357-.143.499-.178.964-.393 1.892-.857 2.82-1.321.963-.499 1.891-1.07 2.818-1.677.928-.606 1.785-1.249 2.677-1.927.856-.713 1.677-1.427 2.462-2.212 6.459-6.316 10.134-14.951 10.205-23.943-.107-15.629-10.919-29.189-26.156-32.722l33.471-47.601zm160.681 126.604v-50.278c-4.924 2.141-10.312 3.319-15.736 3.354-18.269 0-33.792-12.881-39.18-30.616-1.855 7.529-5.424 14.06-10.562 19.305-7.886 7.993-19.198 12.418-31.83 12.418h-.178c-14.238-.393-26.691-7.137-34.648-17.557-.179-.214-3.283 2.106-3.247 2.142 0 0 2.854 9.67 2.89 14.915-.107 10.919-4.603 21.481-12.346 29.082-7.708 7.565-17.949 11.74-28.797 11.74h-49.1v-128.246h111.332c4.353-1.57 9.027-2.426 13.916-2.569h.178c17.985 0 32.865 8.029 40.858 22.017l2.961 5.209c6.352-15.736 20.875-26.726 37.718-26.726 5.495.035 10.919 1.248 15.879 3.461v-1.713l7.208.072 22.658.249 7.066.072v133.669z" transform="translate(988.271 1257.73)"/><path d="m0 0h-27.833c-.357 7.922 5.995 14.523 13.916 14.523 7.922 0 14.238-6.601 13.917-14.523" transform="translate(875.191 1301.52)"/><path d="m0 0c0-10.134-7.494-18.377-16.735-18.377-9.207 0-16.7 8.207-16.7 18.27 0 10.098 7.493 18.412 16.7 18.412 9.206 0 16.735-8.207 16.735-18.305" transform="translate(965.79 1293.56)"/><path d="m1257.25 1257.73h-22.77v119.47h22.77zm-38.64 0h-22.73v119.47h22.73zm-35.22 25.19c0-15.37-15.95-27.83-35.54-27.83-19.63 0-35.58 12.46-35.58 27.83v45.5h22.62v-41.07c.54-8.14 6.78-12.21 13.03-12.21 3.49 0 7.03 1.29 9.49 3.86.28.29.57.61.82.93 1.5 1.89 2.5 4.39 2.68 7.42v41.07h22.48zm-113.8-25.19h-50.24v114.12h38.9c12.16 0 21.44-2.93 26.94-8.21.39-.36.71-.68 1.07-1.11h.03c.18-.21.36-.39.5-.6.22-.18.39-.4.54-.61.35-.39.71-.82 1.03-1.21.64-.86 1.25-1.72 1.79-2.64.35-.61.71-1.22 1.03-1.86.43-.82.82-1.68 1.18-2.53.68-1.75 1.21-3.57 1.57-5.39.36-1.86.57-3.75.57-5.64-.11-8.46-3.75-16.52-10.06-22.16 15.34-7.24 19.94-16.48 19.94-29.47 0-17.84-15.55-32.4-34.79-32.69m119.15 126.61v-48.78h-87.78c.43 2.1.64 4.24.68 6.38-.04 9.57-3.61 18.56-10.14 25.41-6.85 7.6-18.34 11.63-33.25 11.63h-46.04v-128.38h57.38c16.34.25 30.51 9.2 37.43 22.05 5.36-14.28 21.63-24.7 40.83-24.7 5.78 0 11.31.97 16.34 2.68h24.55v-.03h37v.03h1.61v-.03h37.04v133.74z"/><path d="m0 0v.071h-21.767v74.542h15.166c6.815-.321 12.168-5.959 12.096-12.774 0-6.673-5.388-12.097-12.061-12.097h-7.921v-20.482h14.487c19.555 0 19.555-29.26 0-29.26" transform="translate(1065.38 1277.54)"/></g><path d="m0 0c0-45.787-37.124-82.911-82.926-82.911-45.786 0-82.91 37.124-82.91 82.911 0 45.802 37.124 82.926 82.91 82.926 45.802 0 82.926-37.124 82.926-82.926" fill="#fcd700" transform="translate(1082.69 1487.84)"/><path d="m0 0c0 .209-.221.491-.312.654-.088.179-.133.951-.19 1.488-.122 1.351-.419 2.69-.894 3.968-.936 2.066-2.823 3.565-5.053 3.998-.118.681-.384 1.336-.787 1.903-1.381 1.765-3.078 3.268-4.992 4.398-.388.236-.745.49-1.088.772l-.43.312c-1.011.803-2.259 1.233-3.538 1.233-2.256-.195-4.337-1.321-5.706-3.12-.236.639-.624 2.111-.86 2.853-.225.742-.594 2.199-.906 3.063-.312.844 0 .19 0 .338-.76 2.854-3.032 5.057-5.916 5.707-1.042.152-2.081.24-3.135.255-.981-.015-1.947.164-2.853.548 0 .163.149.449.312.879.343.787.624 1.605.83 2.423.996 3.356 1.251 6.879.745 10.325.993-.148 2.005-.22 3.017-.22 3.344.015 6.643.696 9.705 1.989h.175c6.883 3.181 11.326 10.033 11.414 17.611v.225c-.681 7.087-4.619 13.761-12.022 20.373 2.035.506 3.953 1.324 5.706 2.454 5.338 3.595 7.655 10.043 6.346 17.667v.506c-.399 3.805-4.976 5.487-7.742 2.854l-.536-.506c-.43-.43-.891-.818-1.366-1.172-1.472-.67-3.017-1.13-4.607-1.37-1.458-.281-2.884-.654-4.296-1.114-6.627-2.272-10.819-5.707-12.452-10.638-.936-3.226-.49-6.688 1.203-9.587l.148-.224c2.035-2.854 4.387-5.467 7.015-7.799 3.569-3.421 6.955-6.673 7.655-10.554 0-.711.342-1.99-2.035-3.789-1.146-.563-2.409-.849-3.672-.803-2.214.031-4.386.567-6.346 1.56-3.001 1.605-5.931 3.39-8.723 5.338-4.623 3.37-9.69 6.075-15.07 8.023-2.469.982-5.021 1.693-7.654 2.138-2.823.343-5.543 1.324-7.951 2.854l-.282.194-2.659 1.887c-2.781 2.259-5.932 3.968-9.333 5.082-1.248.389-2.526.655-3.819.803-.997.015-1.979.282-2.854.746l-1.799 1.305c-2.466 1.902-5.068 3.614-7.818 5.082-4.619 2.142-9.512 3.672-14.518 4.562-.548.449-1.039.951-1.457 1.518-.834 1.187-1.842 2.245-2.972 3.165-3.922 3.565-8.974 5.631-14.266 5.84-.522.031-1.028.031-1.545 0-3.226-.46-6.228-1.948-8.56-4.249-4.356-3.82-9.096-7.237-13.688-10.581-7.533-5.082-14.503-10.922-20.834-17.432-6.703-6.943-9.157-15.575-11.413-23.199l-1.027-3.432c-.563-2.081-1.115-4.253-1.621-6.33-2.629-10.584-5.14-20.571-15.009-26.989-1.59-.997-2.469-2.823-2.259-4.684.224-1.871 1.457-3.462 3.226-4.131 1.217-.43 2.496-.639 3.789-.639.072-1.054.506-2.051 1.202-2.854 1.085-1.202 2.648-1.887 4.28-1.872h.164c6.821 0 11.683 3.938 15.842 7.982 1.59-1.544 3.553-2.644 5.706-3.196h1.427c2.26.389 4.535.567 6.821.522 1.994-.609 4.06-1.37 6.11-2.142 1.53-.609 3.166-1.202 4.786-1.769l.83-.236h.715c3.416.475 6.361 2.614 7.875 5.707l.194.296v.312c.164.327.297.685.373 1.054l.297-.951c.415-2.051 1.293-3.995 2.526-5.707 1.248-1.438 3.059-2.256 4.976-2.214.624 0 1.248.061 1.876.164h.205l.225-.221c1.023-1.233 2.362-2.172 3.876-2.69 1.8-.597 3.626-1.084 5.426-1.533 2.199-.533 4.356-1.187 6.479-1.974h.224c1.678-.624 3.432-.967 5.231-.997 2.26-.015 4.459.818 6.152 2.332 2.005 1.575 3.42 3.778 3.999 6.258.46.073.905.194 1.335.343 3.032.996 5.992 6.581 6.019 6.612.209.388.433.757.669 1.115.715 1.042 1.1 2.275 1.1 3.538-.016 2.91-2.348 5.261-5.247 5.303h-8.187c-.67-.042-1.324-.164-1.963-.369v.148c-.43.548-.89 1.739-1.514 2.051h.194l1.605-.164h3.105c3.405.073 6.776.476 10.104 1.172 2.839.312 5.707.388 8.56.225h1.058c1.187 0 2.42 0 3.759-.225 1.35-.236 2.853-.266 4.367-.266h1.606c1.411.061 2.807.297 4.162.742.133-.712.281-1.591.506-2.644l.205-.921c.685-4.965 3.508-9.363 7.731-12.068l.89-.563c2.348-1.845 5.144-3.032 8.1-3.466 1.381-.163 2.777-.102 4.132.179 5.292 1.012 10.743-.251 15.039-3.477l.403-.266c.487-.312.951-.67 1.366-1.054 1.172-1.088 2.541-1.963 4.025-2.572 1.16-.445 2.381-.7 3.629-.715 1.678-.031 3.329.433 4.756 1.324l.46-.655c.83-1.217 1.796-2.347 2.854-3.374 2.05-1.811 4.74-2.747 7.475-2.599h5.083c.4.031.799.103 1.202.206.773-.563 1.708-.875 2.675-.891.43 0 .879.077 1.293.21l4.725 1.529c1.34.415 2.439 1.381 3.002 2.659.849 2.066.655 4.429-.521 6.331m-149.591 23.542-.343.548c-.148.194-.312.418-.491.715-.639.89-1.187 1.841-1.616 2.853 1.426 0 2.853-.296 4.5-.342zm-70.546-6.243-2.481 1.221c-2.172 1.663-3.922 3.805-5.098 6.285-.715 1.187-1.457 2.45-2.29 3.595-.814 1.069-1.781 2.02-2.854 2.854l-.502.475c-3.226 8.1-5.322 16.588-6.228 25.25-.43 3.12-1.457 6.107-3.001 8.857-4.49 6.643-9.394 13.004-14.686 19.022l-1.396 1.397-17.611 14.639-.251.21c-2.393 1.841-5.082 3.268-7.936 4.249-5.022 1.59-10.447 1.396-15.351-.552l-.281-.133c-1.518-.803-2.854-1.708-4.341-2.598-1.887-1.324-3.938-2.424-6.08-3.287l-.369-.133c-1.875-.757-3.778-1.427-5.706-1.975-4.684-1.103-9.051-3.257-12.783-6.304l-2.394-2.256c-.951-.879-1.826-1.712-2.198-1.963h-.742c-5.989.209-11.828-1.83-16.378-5.707l-.179-.148c-2.568-2.659-5.616-4.801-8.99-6.3-1.514-.434-3.074-.7-4.653-.803h-.164c-2.168-.122-4.322-.449-6.418-.997-5.022-1.678-9.659-4.383-13.582-7.936-1.738-1.339-2.853-2.168-3.313-2.48l-1.115-.685c-3.641-2.659-7.936-4.265-12.441-4.653h-.194c-2.465.209-4.592 1.784-5.512 4.075-.727 2.895.209 5.972 2.423 7.962 1.484 1.488 3.253 2.854 4.95 4.429 2.956 2.29 5.645 4.934 8.008 7.848 3.299 4.771 2.987 11.163-.772 15.576-3.344 2.986-7.476 4.961-11.889 5.706h-.343l-.742.149h-.239l-1.336.22c-.772.149-1.517.286-2.199.461-1.548.567-2.99 1.369-4.279 2.393-1.089.787-2.23 1.503-3.39 2.172l-3.284 1.739-2.024-3.109c-1.544-2.392-2.24-5.215-1.974-8.054v-.224c1.13-5.927 5.022-10.964 10.477-13.552l.564-.224c1.145-.475 2.362-.742 3.599-.829-2.976-2.469-5.707-5.216-8.161-8.191-4.428-5.737-5.497-13.373-2.853-20.122 3.001-7.042 9.526-11.946 17.12-12.897 1.145-.164 2.301-.255 3.447-.255 1.917.03 3.834.24 5.706.624.149-2.854.24-4.725.434-5.87.563-2.363 1.32-4.649 2.286-6.879v-.164c-1.381-.848-2.853-1.517-4.398-2.008-1.114-.133-2.362-.19-3.283-.251h-1.4c-1.32-.164-2.568-.757-3.534-1.678-1.385-1.682-2.424-3.63-3.048-5.707-.403-1.057-.833-2.142-1.263-3.062-.372-.537-.848-1.028-1.369-1.427-.666 1.115-1.53 2.081-2.568 2.853-1.994 1.427-4.653 1.427-6.643 0l-.924-.593-.221-.149c-1.472-.936-2.899-1.978-4.25-3.077-1.042-.921-1.769-2.154-2.081-3.508-.372-.057-.715-.148-1.057-.282-2.778-1.175-4.767-3.671-5.304-6.627 0-.997-.239-2.853-.372-3.42l-.267-.282c-1.856-2.02-1.856-5.128 0-7.133 2.408-1.514 5.098-2.496 7.906-2.853h1.263c.312.087.624.209.905.372h1.263c.788-.106 1.564-.255 2.336-.433 1.575-.4 3.181-.624 4.798-.651 1.769-.015 3.508.4 5.067 1.218 2.23 1.217 4.014 3.089 5.114 5.364.281.491.566.997.863 1.396h.445c.875-.266 1.785-.43 2.69-.506 3.728.015 7.343 1.355 10.181 3.763.742.593 1.457 1.263 2.107 1.887.67.654 1.37 1.248 2.112 1.795.879.312 1.799.465 2.72.434 1.978-.076 3.938-.327 5.87-.746 3.744-.992 7.727-.547 11.163 1.252 1.677.936 3.37 1.826 4.74 2.541l.221.149c.745.369 1.396.711 1.917 1.023 3.093 2.066 5.513 4.98 7.016 8.382.711 1.426 1.799 4.059 2.081 4.801h.92c2.051.061 4.102.266 6.137.624 1.16.224 2.347.388 3.538.46h1.309c1.917 0 4.679-.236 6.76-.46 2.081-.225 2.854-.343 5.216-.461h3.462c1.979 0 3.923.445 5.707 1.324.418-.433 1.16-1.457 1.651-1.891h-.194c-1.442.016-2.823-.563-3.835-1.601-1.738.578-3.595.742-5.41.46-2.271-.209-4.516-.552-6.745-1.027-1.651-.251-3.047-1.32-3.732-2.853-.727-1.663-.624-3.565.285-5.14 1.202-2.142 2.363-4.075 3.595-6.125l.537-.921c1.038-1.678 2.91-2.644 4.888-2.511h1.309c.088-.133.16-.282.221-.43.966-1.948 2.305-3.686 3.938-5.098 3.138-2.499 7.281-3.272 11.101-2.081 5.353 1.529 10.553 3.523 15.56 5.958h2.051c2.75-.042 5.425.981 7.445 2.853l.224.225.179.281c.906 1.339 1.769 2.675 2.568 4.029v-.491c1.263-3.165 4.402-5.185 7.818-5.037h.164c3.12.236 6.198.978 9.081 2.184h.164l1.145.399h.266c2.705.91 5.616 1.058 8.412.434h.905c3.329.354 6.449 1.739 8.933 3.964 4.353-4.679 10.504-7.266 16.896-7.103h2.168c2.112.434 3.702 2.215 3.881 4.372.046.414.046.829 0 1.248l1.202.209c2.039.43 3.615 2.066 3.968 4.128.388 2.065-.624 4.131-2.495 5.113m-58.091 11.147-.597-.536c-1.366-1.157-2.583-2.481-3.626-3.938-.772 1.339-1.308 2.305-1.738 3.196 1.754.266 3.462.757 5.082 1.457h.936z" fill="#fff" transform="translate(1217.24 1432.32)"/><path d="m0 0h-.224c-1.366-.578-2.409-1.739-2.854-3.165-.342-4.341-.46-4.786-1.632-6.11-.342-.369-.567-1.218-.194-1.59 1.621-.727 3.314-1.29 5.052-1.693.373 0 .685 1.084 1.53 4.085.46 1.606 1.012 3.421 1.575 5.083 0 0 0 .255-.343.803-.338.536-2.004 2.587-2.91 2.587m4.71 0c.43-.388.982-.609 1.56-.624.475.015.936.133 1.354.369 2.108 1.549 3.82 3.584 4.992 5.931.255.715-.579 1.381-1.632 2.199-.567.373-1.294.373-1.861 0l-1.156-.772c-1.355-.86-2.648-1.826-3.881-2.853-.491-.476-.787-1.115-.833-1.8-.057-.369.03-.757.255-1.084.384-.445.787-.89 1.202-1.305zm199.734 6.882-2.629 1.305c-2.838 1.963-5.113 4.638-6.616 7.742-.681 1.13-1.396 2.306-2.138 3.39-.639.788-1.339 1.514-2.111 2.169-.533.418-1.009.909-1.397 1.457-3.477 8.636-5.722 17.713-6.688 26.958-.384 2.511-1.232 4.935-2.48 7.133-4.372 6.422-9.139 12.559-14.267 18.384-.342.372-.715.715-1.027 1.027l-.251.251-17.345 14.415c-2.108 1.636-4.47 2.914-6.996 3.759-1.754.612-3.599.909-5.456.894-2.378 0-4.725-.445-6.924-1.339-1.37-.742-2.853-1.606-4.029-2.435-2.168-1.518-4.531-2.766-7.015-3.702-1.975-.848-3.999-1.56-6.049-2.142-4.102-.951-7.933-2.808-11.22-5.452l-2.362-2.199c-2.854-2.853-3.284-3.077-5.707-3.077-5.052.209-10.002-1.499-13.837-4.802-2.956-3.043-6.494-5.467-10.386-7.133-1.857-.548-3.774-.875-5.707-.993-2.05-.107-4.086-.418-6.079-.936-4.486-1.575-8.617-4.014-12.155-7.194-1.233-.936-2.854-2.199-3.596-2.69l-1.278-.787c-4.25-3.063-9.26-4.859-14.476-5.231h-.399c-4.147.327-7.731 3.047-9.158 6.969-1.141 4.311.164 8.918 3.42 11.977 1.606 1.605 3.432 3.138 5.201 4.622 2.838 2.127 5.441 4.562 7.757 7.251 2.154 3.227 1.948 7.476-.521 10.478-2.853 2.29-6.254 3.835-9.865 4.474h-.342l-.772.148c-1.279.255-2.515.419-3.794.731-3.028 1.305-5.896 2.956-8.56 4.919-1.069-1.651-1.544-3.614-1.335-5.574.875-4.576 3.877-8.472 8.069-10.492l.491-.209c1.218-.461 2.526-.682 3.85-.625h1.591c.859.031 1.708-.045 2.541-.22.89-.27 1.544-1.027 1.662-1.948 0-.567-.178-.997-.92-1.56l-2.02-1.697c-3.584-2.762-6.883-5.881-9.854-9.302-3.492-4.607-4.341-10.698-2.214-16.092 2.465-5.665 7.772-9.603 13.924-10.299.936-.148 1.887-.225 2.853-.225 3.017.118 6.004.624 8.903 1.488h.281c.134 0 .373 0 .43-.654 0-1.263.134-2.854.194-4.117 0-2.275.21-4.413.373-5.337.506-2.093 1.187-4.143 2.051-6.137.297-.685.517-1.217.609-1.472.251-.891.03-1.842-.609-2.511-2.184-1.724-4.699-2.972-7.388-3.687-1.305-.175-2.854-.22-3.714-.281h-1.13c-.475-.042-.905-.251-1.232-.579-.909-1.339-1.606-2.792-2.081-4.34-.491-1.218-.967-2.481-1.457-3.508-1.53-2.138-3.58-3.846-5.958-4.961l-1.666-.967c-.818-1.441-1.842-2.765-3.048-3.911-.92-.741-2.05-1.156-3.222-1.202-1.549-2.138-2.542-4.653-2.854-7.266l-.254-1.176v-.369h.224c.966-.106 1.917-.285 2.853-.521 1.294-.297 2.614-.491 3.938-.536 1.13-.027 2.245.239 3.253.772 1.518.863 2.72 2.203 3.42 3.793.536 1.038 1.187 1.99 1.975 2.853.448.518 1.114.799 1.799.772.7-.045 1.381-.163 2.051-.372.624-.194 1.263-.312 1.917-.373 2.735.061 5.364 1.073 7.445 2.853.624.521 1.248 1.088 1.857 1.651.879.891 1.83 1.709 2.853 2.439 1.457.639 3.048.936 4.638.875 2.29-.072 4.546-.342 6.776-.833 1.042-.282 2.126-.415 3.211-.415 1.769-.03 3.507.4 5.052 1.248 1.723.966 3.462 1.887 4.862 2.629l2.077 1.115c2.336 1.727 4.193 4.013 5.368 6.673.742 1.426 1.99 4.592 1.99 4.622v.148l-2.853 2.184v-.19c-.966-1.59-2.005-3.124-3.135-4.592-5.083-6.943-13.377-7.818-19.973-7.818h-1.397c-7.46.327-14.67-2.69-19.692-8.218-.224-.224-.578-.224-.802 0-.092.194-.092.4 0 .594.102.49.296.951.547 1.365 5.159 7.313 13.955 8.397 21.062 8.56 4.265.092 8.469 1.058 12.349 2.854 4.071 2.423 7.118 6.258 8.56 10.763.742 2.526 1.279 5.094 1.606 7.711.266 2.051.65 4.086 1.141 6.091.076.255.312.404.567.404h.194c.297 0 .803-.255.803-.655-1.252-4.679-1.191-9.614.148-14.267 1.084-2.081 3.386-3.226 5.707-2.853 1.841.061 3.683.266 5.497.594 1.309.254 2.644.418 3.968.49.506.031 1.012.031 1.515 0 2.244-.072 4.489-.369 6.673-.875 1.887-.433 3.789-.73 5.706-.894h3.287c1.32-.103 2.644.255 3.744 1.027.593.522.384 1.264 0 2.199v.179c0 .133 0 .343-.179.506-.373 1.263-.966 3.135 0 3.995.164.106.342.163.536.163.206.031.4-.087.461-.281 0-.369.236-.711.312-1.084.354-1.56.981-3.048 1.856-4.383 2.481-2.975 5.559-5.38 9.021-7.092 3.108-1.826 5.2-4.976 5.706-8.56 0-1.81-1.769-3.104-3.089-3.907-2.275-1.217-4.771-1.963-7.358-2.183-.905.072-1.784.414-2.511.966-2.02 1.887-1.799 2.511-3.108 4.74-.696 1.218-1.499 2.378-2.362 3.477-1.263 1.397-3.15 2.051-4.992 1.739-2.111-.194-4.208-.536-6.258-1.027-.445-.088-.818-.369-1.024-.772-.224-.476-.224-1.039 0-1.515 1.203-2.081 2.333-4.029 3.539-6.049l.532-.875c.343-.449.89-.654 1.427-.582h1.917c.803.107 1.591-.179 2.142-.772.369-.563.712-1.16 1.024-1.739.669-1.487 1.651-2.838 2.853-3.937 1.381-1.161 3.135-1.769 4.934-1.739.818 0 1.606.118 2.378.373 5.441 1.529 10.729 3.565 15.781 6.106h2.766c1.754-.103 3.477.46 4.816 1.606 1.575 2.286 2.972 4.694 4.189 7.178 1.084 1.903 1.084 4.22 0 6.107-2.111 3.093-3.82 6.448-5.068 9.986l-1.145.404c-.802.369-1.662.593-2.541.624-.845.102-1.693-.286-2.169-.997l5.707-11.414c.521-.951.715-2.05.578-3.134-.905-2.363-2.24-4.535-3.937-6.392-.149-.118-.327-.194-.521-.224 0 0-.369 0-.175.73.681 2.496 1.023 5.068 1.069 7.655-1.518 3.477-3.299 6.832-5.323 10.043-.875 1.146-1.381 2.542-1.453 3.999.072.609.502 1.145 1.084 1.335.833.27 1.678.476 2.542.628 2.065.46 4.203.936 4.961 2.077 2.366 3.835 3.88 8.13 4.432 12.589 0 .225.19.655.517.655.312 0 .373 0 .445-.476.849-4.904-.296-9.941-3.192-13.985-.194-.343-.255-.727-.194-1.115.103-.297.282-.548.533-.742 2.781-.609 5.695-.163 8.16 1.248 2.169.015 4.341.266 6.449.742l1.948.342c.179-.087.327-.251.399-.445-1.723-1.963-2.88-4.356-3.34-6.912-.491-.487-.997-.993-1.548-1.454-2.081-1.457-3.519-3.656-4.01-6.167-.031-.506.369-.951.875-.966.357.015.7.118.997.281.311.164.654.251 1.008.236.3-.042.521-.296.536-.608l-2.138-3.166c-.628-1.278-.685-2.777-.137-4.101.225-.742 0-1.351.343-2.005.73-1.518 2.305-2.439 3.983-2.336 2.72.255 5.364.909 7.875 1.963l1.354.461c3.402 1.247 7.119 1.502 10.672.715 3.298.578 6.315 2.256 8.56 4.771 1.32-.164 2.541-.849 3.355-1.918 3.599-3.953 8.755-6.152 14.104-5.992h1.221c.608 0 .772.434.803.803.026.373-.312.879-.936 1.191l-3.227 1.708c-2.689 1.309-4.846 3.477-6.136 6.167-.879 2.617-2.051 5.113-3.508 7.445l-.746 1.085c-.475.639-.905 1.324-1.263 2.039 3.508-1.263 5.456-3.866 7.819-8.146 2.244-3.834 6.227-6.315 10.656-6.673.548 0 1.115.061 1.647.21.537-.061 1.012.353 1.027.905.031.358-.209.67-.536.772zm-62.119 51.729c0-.342-.312-.547-.537-.547-.236 0-.353 0-.429.49-.43 3.12-1.279 6.152-2.511 9.047-.328.624-.716 1.206-1.146 1.769-.772 1.058-1.457 1.964-.684 3.227.327.414.833.639 1.369.593.282 0 .563-.057.833-.163 1.203-.803 2.139-1.96 2.645-3.314 1.278-3.565 1.441-7.445.46-11.102m29.127-46.201c-.042-.669-.312-1.324-.742-1.845-1.233-.639-2.602-.921-3.983-.829-1.146 0-1.545.19-1.8.563-.266.373.164 1.175.164 1.175.848 1.796 2.377 3.192 4.253 3.847.548.209 1.157.209 1.708 0 .696-.594.327-2.584.267-2.911zm7.936 18.235c-.057-.639-.236-1.252-.533-1.83-.194-.491-.669-.818-1.206-.818-.86 0-.803 1.027-.833 1.176-.015 1.365-.236 2.735-.624 4.04-.593 1.293-3.477 4.965-5.109 4.832-.94-.312-1.739-.936-2.306-1.739-.966-1.263-.966-1.411-1.293-1.606-.312-.194-.681 0-.788.655-.281.936-.281 1.917 0 2.853.255.997.624 1.948 1.115 2.854 0 0 .848 2.005 1.16 2.48.43.757 1.218 1.233 2.081 1.263.982.031 1.918-.445 2.466-1.263.536-.609.981-1.293 1.339-2.02.521-.818 1.114-1.59 1.795-2.29 1.176-1.381 2.04-3.017 2.542-4.756.285-1.263.3-2.568.046-3.831zm-68.629-23.245c.506-.803.936-1.648 1.294-2.511.654-1.457 1.217-2.72 1.887-2.854.312-.045.624-.045.936 0 1.871.118 3.641.818 5.113 1.994.848.711.563 1.172.194 1.826-.148.236-.285.491-.403.742-.358.746-.624 1.518-.818 2.305-.43 1.457-.803 2.854-2.348 2.481-2.26-.312-4.531-.46-6.821-.445 0 0-.803 0-1.024-.552-.224-.532.343-1.172.967-1.765.354-.373.65-.788.89-1.221zm312.084-15.842c-.236.445-.43.921-.579 1.396-.133.655-.224 1.37-.311 2.024-.076.978-.282 1.929-.594 2.853-.506.993-1.518 1.633-2.633 1.663-.369-.015-.742-.088-1.084-.236-1.621-.818-2.598-1.681-2.302-3.538.773-2.363 1.412-4.771 1.903-7.209 0-.4.342-1.724.966-1.724h.148l4.68 1.545c.224.076.403.224.521.434.251.711-.24 1.769-.715 2.792m-6.939 11.413c-1.085 1.339-2.394 2.469-3.877 3.344-.537.312-1.043.67-1.518 1.054l-.251.194c-.312.255-.685.404-1.085.404-1.4-.179-2.602-1.1-3.138-2.393 0-.894 1.221-2.485 2.853-4.459l.342-.43c.655-.879 1.621-1.457 2.705-1.621.952.015 1.872.4 2.542 1.084.685.685 2.02 2.081 1.427 2.941zm-109.736 6.822c-.845-.118-1.693-.179-2.542-.179h-2.317c-.445.046-.905.046-1.365 0-.895-1.457-1.4-3.105-1.488-4.813.24-1.948 2.229-2.351 3.744-2.663.582-.133 1.19-.205 1.799-.221.879-.106 1.724.312 2.169 1.085.761 1.932 1.324 3.953 1.651 6.018.087.179.087.388 0 .563-.282.271-.67.404-1.054.373zm106.049-13.791v.148h-.133c-2.72-.164-4.398 2.02-6.004 4.131-.532.701-1.054 1.382-1.59 1.948-.803.891-1.678 1.739-2.598 2.511-.818.609-1.518 1.351-2.081 2.199-.491 1.248-.894 2.527-1.206 3.82-.282 1.054-.533 2.051-.788 2.853l-.179.43c-.475 1.309-1.084 2.854-2.853 3.196-.875.133-1.765.209-2.644.225-2.302-.21-4.562.639-6.167 2.286-.906 1.442-.906 3.272 0 4.714.281.624.506 1.289.654 1.959.936 2.96 1.115 6.11.521 9.169-.106.418-.224.818-.372 1.221-.43 1.008-.594 2.108-.491 3.196.179.399.593.635 1.027.578.476-.03.951-.118 1.396-.266.312 0 .578 0 .89-.225 1.53-.388 3.12-.593 4.71-.624 2.781 0 5.543.579 8.1 1.678 5.44 2.454 8.979 7.818 9.096 13.776-.593 6.483-4.591 12.707-12.2 19.098l-.579.476c-.996.803-2.172 1.826-2.202 2.853-.027 1.039 2.351 1.457 3.834 1.8l.906.236h.403c1.918.403 3.759 1.114 5.456 2.142 5.406 3.64 5.216 10.059 4.592 13.612v.342c0 .445-.24 1.024-.655 1.024-.148-.016-.296-.073-.403-.179l-.517-.476c-.639-.654-1.34-1.217-2.112-1.693-1.784-.92-3.717-1.56-5.707-1.871-1.293-.255-2.571-.583-3.819-.982-5.364-1.857-8.739-4.592-9.926-8.1-.582-2.168-.255-4.474.906-6.391 1.959-2.793 4.234-5.334 6.79-7.594 3.881-3.698 7.906-7.563 8.812-12.81.49-3.134-1.009-6.243-3.759-7.818-1.8-1.023-3.85-1.529-5.916-1.483-2.854.03-5.676.742-8.218 2.081-3.165 1.693-6.224 3.61-9.153 5.706-4.341 3.181-9.082 5.764-14.119 7.651-2.26.909-4.592 1.575-7 1.963-3.447.415-6.745 1.651-9.644 3.565-.936.639-1.902 1.324-2.854 1.978-2.392 1.933-5.128 3.417-8.069 4.368-1.054.327-2.153.551-3.253.685-1.605.091-3.169.593-4.534 1.457l-1.948 1.396c-2.333 1.769-4.798 3.359-7.385 4.725-4.356 1.994-8.948 3.42-13.673 4.265-1.484.506-2.762 1.518-3.626 2.853-.669.894-1.442 1.682-2.332 2.363-3.196 3.032-7.358 4.832-11.756 5.083h-1.248c-2.362-.43-4.519-1.575-6.197-3.284-4.489-3.907-9.302-7.415-13.985-10.789-7.312-4.95-14.103-10.626-20.255-16.941-6.049-6.228-8.248-14.016-10.36-21.549l-.936-3.344c-.578-2.051-1.114-4.162-1.632-6.213-2.853-11.101-5.706-22.202-16.72-29.423-.685-.404-.552-1.412.194-1.651 3.492-1.024 7.236.091 9.598 2.853 2.854 3.39 4.357 6.673 7.727 10.272 0 0 .491.487.803.369s.342-.194.225-.593c-.476-1.442-1.218-2.766-2.169-3.938-.909-1.221-1.621-2.557-2.111-3.999-1.515-3.195-3.805-5.957-6.674-8.023-.251-.149-.46-.343-.654-.567-.266-.312-.236-.46-.236-.46 0-.685.491-1.115 1.606-1.161 6.209 0 10.637 4.417 14.917 8.56.194.164.449.27.715.255.225.057.461.057.685 0 .517-.373.993-.787 1.453-1.233 1.279-1.354 2.915-2.335 4.714-2.853 2.108.369 4.25.563 6.388.609h1.712c2.256-.685 4.531-1.548 6.699-2.378 1.575-.593 3.166-1.191 4.771-1.738 2.081 0 3.569 2.004 4.653 3.713.373 1.145.373 2.393 0 3.538-.179.669-.251 1.366-.24 2.05.476.149.982.149 1.458 0 .49-.045.981-.045 1.457 0 .684.179 1.114.849.981 1.545-.491 1.8-1.339 3.477-2.511 4.934-.92 1.248-1.666 2.633-2.199 4.086-.848 1.876-2.039 3.569-3.538 4.996-1.682 1.499-2.914 3.416-3.595 5.558 0 0-.149.46 0 .624.133.179.593 0 .593 0 .742-.537 1.515-1.176 2.23-1.739 2.153-2.111 4.828-3.625 7.757-4.371 2.899-.369 5.81-.491 8.739-.369.696.103 1.156.803.966 1.484-1.293 2.587-2.336 5.292-3.108 8.084-1.294 3.983-1.499 8.248-.609 12.349.076.327.358.567.685.567.476-.194.818-.624.89-1.145v-.563c.43-5.931.803-11.562 4.444-16.348.966-1.354 2.229-2.438 3.717-3.165.993-.46 1.887-1.1 2.659-1.887.757-1.073.906-2.454.358-3.656l-4.444-6.555c-1.115-1.427-1.948-3.048-2.454-4.771-.235-1.59-.235-3.222 0-4.813v-.373c-.133.073-.251.195-.312.343-1.662 2.362-2.126 5.364-1.263 8.126.609 1.37 4.219 6.54 5.277 8.222.343.532.639 1.084.343 1.453-1.146.787-2.424 1.339-3.79 1.621-.612-.251-1.114-.712-1.426-1.309 0 0-.137-.206-.255-.339l-5.513-10.047v-.373c-.403-.951-.521-2.005-.312-3.017.282-1.484.772-3.12 1.115-4.28l.281-.978c.297-1.518.879-2.975 1.708-4.28.491-.551 1.191-.848 1.918-.818.418.015.848.057 1.263.133.654.134 1.339.134 1.994 0 .787-.281 1.483-.802 1.989-1.487.552-.727 1.294-1.279 2.142-1.59 1.724-.579 3.493-1.024 5.231-1.484 2.348-.567 4.665-1.263 6.924-2.112 1.279-.46 2.614-.726 3.968-.802 1.366 0 2.66.521 3.657 1.457 1.559 1.217 2.587 3.002 2.853 4.965.342 1.887.966 2.02 2.363 2.077.475.015.951.091 1.396.239 1.56 1.264 2.838 2.869 3.717 4.68.266.491.563.982.875 1.442.296.357.445.803.43 1.263.015.746-.594 1.339-1.336 1.309h-7.848c-2.393 0-3.447-2.45-4.307-4.505-.285-.757-.628-1.499-1.027-2.199-.7-1.202-2.036-1.902-3.417-1.795-.669.072-1.308.205-1.947.399-3.166.772-6.449 1.575-7.788 4.71-.267.894-.088 1.86.491 2.587 1.856 2.29 3.937 4.383 6.212 6.258 3.401.83 6.316 2.987 8.1 5.988.339.522.593 1.085.742 1.678.194.91.685 1.712 1.396 2.291.521.251.921.148 1.027-.282.164-1.666-.163-3.329-.936-4.801-.106-.343-.239-.685-.403-1.027v-.252h.282c.863 0 1.769-.148 2.689-.148 3.15.088 6.304.46 9.394 1.115 3.047.639 6.151 1.012 9.275 1.084h1.054c1.396 0 2.853 0 4.101-.251 1.263-.255 2.659-.24 4.029-.24h1.366c3.431-.22 6.627 1.785 7.936 4.98.863 4.25.772 8.648-.267 12.856v.517c-.015.255.103.491.328.597.369.206.757 0 .962-.475 1.354-4.162 2.306-8.427 2.853-12.768.582-3.595 1.903-7.031 3.881-10.089 2.941-4.372 7.906-6.955 13.182-6.852 1.279.045 2.557.179 3.82.399.609.046 1.202.046 1.796 0 6.867.076 13.346-3.104 17.493-8.56.03-.087.03-.19 0-.281-.061-.297-.373-.461-.655-.343l-.593.449c-3.656 3.432-8.176 5.794-13.08 6.822-.936.163-1.887.235-2.853.235-1.438-.03-2.865-.148-4.307-.327-1.339-.179-2.69-.281-4.044-.312-1.59-.03-3.15.255-4.622.833-5.855 1.918-10.611 8.56-12.156 12.84-.118.221-.342.37-.593.37-.179.045-.358.045-.521 0-.655-.43-.773-.651-.891-1.085.164-1.56.4-3.089.742-4.622.388-4.071 2.602-7.757 6.034-10.013 2.169-1.872 4.828-3.109 7.67-3.539.86-.118 1.739-.118 2.598 0 1.488.343 3.002.522 4.532.522 4.995-.061 9.826-1.697 13.836-4.653.7-.445 1.355-.921 1.979-1.457.817-.818 1.784-1.469 2.853-1.918.696-.281 1.442-.43 2.199-.43 1.309.015 2.587.43 3.641 1.202.491.255 1.023.389 1.575.404 1.487 0 2.302-1.176 3.359-2.66.681-1.027 1.472-1.978 2.347-2.853 1.309-1.084 3.002-1.621 4.71-1.487h4.623c.239-.016.491-.016.742 0v.178c-.297 3.048-1.1 6.034-2.378 8.812zm-156.07 13.954c-.404-.563-1.085-.86-1.769-.757-.712-.015-1.412.164-2.021.537-1.19.92-1.871 2.347-1.856 3.846-.107.475.087.966.475 1.233.221.137.491.194.742.163 1.412-.087 2.736-.742 3.687-1.796 0 0 1.483-1.829.742-3.108zm1.544 24.55c-.327-.563-.997-.818-1.605-.608-.578.342-1.054.848-1.336 1.457-.372.685-.684 1.293-1.605 1.202-.757-.133-1.472-.46-2.051-.966-.312-.236-1.59-1.202-1.917-1.484-1.887-1.13-3.344-2.853-4.132-4.919-.102-.358-.194-.731-.251-1.1-.015-.715-.327-1.396-.864-1.86h-.311c-.267 0-.537.106-.742.285-.225.164-.373.43-.373.712-.373 3.359.875 6.688 3.374 8.963 1.545 1.366 2.941 2.91 4.159 4.592.597.803 1.251 1.59 1.891 2.332.623.742 1.304 0 2.644-1.366 1.247-1.738 2.286-3.599 3.119-5.558.194-.475.194-1.012 0-1.488zm29.291 41.256-2.077-1.918c-2.542-2.111-4.817-4.546-6.734-7.236-.773-1.129-1.427-2.32-1.964-3.568 0 0-.205-.4-.49-.4-.149.016-.282.073-.369.194-.327 1.842-.149 3.744.548 5.483 1.799 4.264 4.77 7.936 8.56 10.61.449.282.951.43 1.472.43.685.061 1.339-.312 1.605-.951.491-.89.267-2.02-.551-2.644" fill="#ed1847" transform="translate(790.755 1439.05)"/></g></svg>