<svg clip-rule="evenodd" fill-rule="evenodd" stroke-linejoin="round" stroke-miterlimit="2" viewBox="0 0 560 400" xmlns="http://www.w3.org/2000/svg"><g fill-rule="nonzero" transform="matrix(5.06413 0 0 5.06413 180 78.4609)"><path d="m9.051 30.567 4.912-8.747-7.646-21.82c-4.421 1.194-8.741 10.209-4.721 17.789 1.931 3.639 7.455 12.778 7.455 12.778z"/><path d="m5.729 28.263-2.135-1.412-1.318-3.508h-.953l.476 4.616 5.814 3.458z"/><path d="m35.9 26.851-2.135 1.412-1.884 3.154 5.812-3.458.478-4.616h-.955z"/><path d="m12.953 36.408 6.792 11.592 6.72-11.575-6.72 1.06z"/><path d="m23.814 22.104-4.067-6.312-4.067 6.312 4.067 6.23z" fill="#fae100"/><path d="m29.29 31.904-4.564-8.074-4.979 7.482-4.979-7.482-4.563 8.074-3.37 2.176-.478 7.336h.956l1.315-6.228 1.803-.743 9.316 1.283 9.316-1.283 1.803.743 1.316 6.228h.955l-.478-7.336z" fill="#fae100"/><path d="m37.896 17.789c4.022-7.58-.298-16.595-4.718-17.789l-7.642 21.82 4.905 8.747s5.526-9.139 7.455-12.778z"/></g></svg>